<?xml version="1.0" ?><!-- Uploaded to: SVG Repo, www.svgrepo.com, Generator: SVG Repo Mixer Tools -->
<svg fill="transparent" stroke-width="3" stroke="black" width="800px" height="800px" viewBox="0 0 80 80" data-name="Layer 1" id="Layer_1" xmlns="http://www.w3.org/2000/svg"><title/><path d="M6,77H59.44A20.38,20.38,0,0,0,79,62.28a1,1,0,0,0-.16-.88A1,1,0,0,0,78,61H41V4a1,1,0,0,0-.71-1,1,1,0,0,0-1.12.4l-34,50A1,1,0,0,0,6,55H39v6H2a1,1,0,0,0-1,1V72A5,5,0,0,0,6,77ZM7.89,53,39,7.25V53ZM3,63H76.62A18.38,18.38,0,0,1,59.44,75H6a3,3,0,0,1-3-3Z"/></svg>