<?xml version="1.0" encoding="iso-8859-1"?>
<!-- Uploaded to: SVG Repo, www.svgrepo.com, Generator: SVG Repo Mixer Tools -->
<svg version="1.1" id="Layer_1" xmlns="http://www.w3.org/2000/svg" xmlns:xlink="http://www.w3.org/1999/xlink" 
	 viewBox="0 0 511.991 511.991" xml:space="preserve">
<path style="fill:#CCD1D9;" d="M426.648,362.665c-12.718,0-24.155,5.608-31.999,14.499c-7.812-8.891-19.249-14.499-31.999-14.499
	c-23.516,0-42.656,19.14-42.656,42.671c0,23.53,19.141,42.655,42.656,42.655c12.75,0,24.188-5.609,31.999-14.484
	c7.844,8.875,19.281,14.484,31.999,14.484c23.531,0,42.688-19.125,42.688-42.655C469.336,381.805,450.18,362.665,426.648,362.665z"
	/>
<g>
	<path style="fill:#434A54;" d="M370.213,397.789c4.156,4.172,4.156,10.922,0,15.094c-4.188,4.155-10.938,4.155-15.094,0
		c-4.156-4.172-4.156-10.922,0-15.094C359.275,393.633,366.025,393.633,370.213,397.789z"/>
	<path style="fill:#434A54;" d="M434.211,397.789c4.156,4.172,4.156,10.922,0,15.094c-4.188,4.155-10.938,4.155-15.094,0
		c-4.155-4.172-4.155-10.922,0-15.094C423.273,393.633,430.023,393.633,434.211,397.789z"/>
</g>
<path style="fill:#FFCE54;" d="M501.335,255.995h-68.312c-5.875,0-10.656,4.781-10.656,10.672v42.67
	c0,5.891,4.781,10.656,10.656,10.656h68.312c5.875,0,10.656-4.766,10.656-10.656v-42.67
	C511.991,260.776,507.21,255.995,501.335,255.995z"/>
<path style="fill:#E6E9ED;" d="M415.993,170.668H309.339c-17.656,0-31.999-14.358-31.999-31.999c0-3.734,0.625-7.328,1.812-10.672
	H32c-17.648,0-32-14.343-32-31.999C0,78.358,14.351,64,32,64h362.649c17.656,0,31.999,14.358,31.999,31.999
	c0,4.172-0.781,8.141-2.25,11.797c13.594,3.703,23.594,16.14,23.594,30.874C447.992,156.309,433.648,170.668,415.993,170.668z"/>
<path style="fill:#434A54;" d="M415.993,191.996h-42.655c-5.906,0-10.688,4.781-10.688,10.672v63.999
	c0,5.89,4.781,10.671,10.688,10.671h42.655c5.89,0,10.655-4.781,10.655-10.671v-63.999
	C426.648,196.777,421.883,191.996,415.993,191.996z"/>
<path style="fill:#F6BB42;" d="M117.334,404.867H53.336c-5.891,0-10.672-4.781-10.672-10.672V202.668
	c0-5.891,4.781-10.672,10.672-10.672h63.999c5.891,0,10.664,4.781,10.664,10.672v191.527
	C127.998,400.086,123.225,404.867,117.334,404.867z"/>
<path style="fill:#656D78;" d="M437.336,255.995H226.184c-29.406,0-53.327,23.937-53.327,53.342v42.656
	c0,29.421,23.921,53.343,53.327,53.343h211.152c29.406,0,53.312-23.922,53.312-53.343v-42.656
	C490.648,279.932,466.742,255.995,437.336,255.995z"/>
<path style="fill:#FFCE54;" d="M245.332,191.996H117.334c-5.89,0-10.671,4.781-10.671,10.672v191.527
	c0,5.891,4.781,10.672,10.671,10.672h127.998c5.891,0,10.664-4.781,10.664-10.672V202.668
	C255.996,196.777,251.223,191.996,245.332,191.996z"/>
<g>
	<path style="fill:#E6E9ED;" d="M266.66,362.665c-23.523,0-42.664,19.14-42.664,42.671c0,23.53,19.14,42.655,42.664,42.655
		s42.679-19.125,42.679-42.655C309.339,381.805,290.184,362.665,266.66,362.665z"/>
	<path style="fill:#E6E9ED;" d="M181.333,362.665c-23.531,0-42.671,19.14-42.671,42.671c0,23.53,19.14,42.655,42.671,42.655
		c23.523,0,42.663-19.125,42.663-42.655C223.996,381.805,204.856,362.665,181.333,362.665z"/>
	<path style="fill:#E6E9ED;" d="M95.999,362.665c-23.523,0-42.663,19.14-42.663,42.671c0,23.53,19.14,42.655,42.663,42.655
		s42.664-19.125,42.664-42.655C138.663,381.805,119.522,362.665,95.999,362.665z"/>
</g>
<path style="fill:#434A54;" d="M266.66,415.991H95.999c-5.891,0-10.664-4.765-10.664-10.655s4.773-10.672,10.664-10.672H266.66
	c5.898,0,10.68,4.781,10.68,10.672S272.558,415.991,266.66,415.991z"/>
<g>
	<path style="fill:#FFCE54;" d="M53.336,255.995c5.891,0,10.664-4.766,10.664-10.656s-4.773-10.672-10.664-10.672H42.664v21.328
		H53.336z"/>
	<path style="fill:#FFCE54;" d="M53.336,298.666c5.891,0,10.664-4.766,10.664-10.672c0-5.891-4.773-10.656-10.664-10.656H42.664
		v21.328H53.336z"/>
	<path style="fill:#FFCE54;" d="M53.336,341.337c5.891,0,10.664-4.781,10.664-10.672s-4.773-10.672-10.664-10.672H42.664v21.344
		H53.336z"/>
</g>
<path style="fill:#4FC2E9;" d="M255.996,202.668c0-5.891-4.773-10.672-10.664-10.672H117.334c-5.89,0-10.671,4.781-10.671,10.672
	v53.327h149.333V202.668z"/>
<rect x="170.666" y="191.995" style="fill:#3BAFDA;" width="21.335" height="63.999"/>
</svg>